# xmcd
#
# Track frame offsets:
#	187
#	19437
#	38082
#	57815
#	76312
#	97647
#	122932
#	144012
#	160582
#	188057
#
# Disc length: 2772 seconds
# Revision: 5
# Processed by: cddbd v1.5.2PL0 Copyright (c) Steve Scherf et al.
# Submitted via: dBpowerAMP V12.0
#
DISCID=6f0ad20a
DTITLE=Ronnie Milsap - Back To The Grindstone
DYEAR=1991
DGENRE=Country
TTITLE0=Since I Don't Have You
TTITLE1=All Is Fair in Love and War
TTITLE2=Are You Lovin' Me Like I'm Lovin' You
TTITLE3=When the Hurt Comes Down
TTITLE4=Back to the Grindstone
TTITLE5=Spare the Rod (Love the Child)
TTITLE6=Love Certified (Duet With Patti LaBelle)
TTITLE7=Turn That Radio On
TTITLE8=Old Habits Are Hard to Break
TTITLE9=I Ain't Gonna Cry No More
EXTD=
EXTT0=
EXTT1=
EXTT2=
EXTT3=
EXTT4=
EXTT5=
EXTT6=
EXTT7=
EXTT8=
EXTT9=
PLAYORDER=
